# xmcd CD database file
#
# Track frame offsets:
#	150
#	13222
#	34152
#	51262
#	66820
#	83840
#
# Disc length: 1341 seconds
#
# Revision: 0
# Processed by: cddbd v1.5PL3 Copyright (c) Steve Scherf et al.
# Submitted via: CDex 1.51
#
DISCID=4a053b06
DTITLE=B.B. Blue - Dusty Tracks
DYEAR=2003
DGENRE=Blues
TTITLE0=Big Mama's Party
TTITLE1=Foolin' Me
TTITLE2=Anytime
TTITLE3=Loosin' My Mind
TTITLE4=Day Tripper
TTITLE5=Nothing's Left
EXTD=YEAR: 2003
EXTT0=
EXTT1=
EXTT2=
EXTT3=
EXTT4=
EXTT5=
PLAYORDER=
